<svg width="25" height="25" viewBox="0 0 25 25" fill="none" xmlns="http://www.w3.org/2000/svg">
<path d="M2.56836 13.5309H19.5684" stroke="#2E2E2E" stroke-width="1.5" stroke-miterlimit="10" stroke-linecap="round" stroke-linejoin="round"/>
<path d="M19.5684 11.2009V18.3509C19.5384 21.2009 18.7583 21.9209 15.7883 21.9209H6.34839C3.32839 21.9209 2.56836 21.1709 2.56836 18.1909V11.2009C2.56836 8.50095 3.19836 7.63095 5.56836 7.49095C5.80836 7.48095 6.06839 7.47095 6.34839 7.47095H15.7883C18.8083 7.47095 19.5684 8.22095 19.5684 11.2009Z" stroke="#2E2E2E" stroke-width="1.5" stroke-linecap="round" stroke-linejoin="round"/>
<path d="M22.5684 7.6509V14.6409C22.5684 17.3409 21.9384 18.2109 19.5684 18.3509V11.2009C19.5684 8.2209 18.8083 7.4709 15.7883 7.4709H6.34839C6.06839 7.4709 5.80836 7.4809 5.56836 7.4909C5.59836 4.6409 6.37839 3.9209 9.34839 3.9209H18.7883C21.8083 3.9209 22.5684 4.6709 22.5684 7.6509Z" stroke="#2E2E2E" stroke-width="1.5" stroke-linecap="round" stroke-linejoin="round"/>
<path d="M5.81836 18.731H7.53833" stroke="#2E2E2E" stroke-width="1.5" stroke-miterlimit="10" stroke-linecap="round" stroke-linejoin="round"/>
<path d="M9.67773 18.731H13.1177" stroke="#2E2E2E" stroke-width="1.5" stroke-miterlimit="10" stroke-linecap="round" stroke-linejoin="round"/>
</svg>
