<?xml version="1.0" encoding="UTF-8"?>
<!DOCTYPE svg PUBLIC "-//W3C//DTD SVG 1.1//EN" "http://www.w3.org/Graphics/SVG/1.1/DTD/svg11.dtd">
<!-- Creator: CorelDRAW X6 -->
<svg xmlns="http://www.w3.org/2000/svg" xml:space="preserve" width="9.90752in" height="1.86111in" version="1.1" style="shape-rendering:geometricPrecision; text-rendering:geometricPrecision; image-rendering:optimizeQuality; fill-rule:evenodd; clip-rule:evenodd"
viewBox="0 0 10085 1894"
 xmlns:xlink="http://www.w3.org/1999/xlink">
 <defs>
  <style type="text/css">
   <![CDATA[
    .str1 {stroke:#2B2A29;stroke-width:7.06941}
    .str2 {stroke:#828282;stroke-width:7.06941}
    .str0 {stroke:#2B2A29;stroke-width:127.626}
    .fil0 {fill:none}
    .fil1 {fill:#2B2A29}
    .fil4 {fill:#828282}
    .fil3 {fill:#2B2A29;fill-rule:nonzero}
    .fil2 {fill:#303030;fill-rule:nonzero}
   ]]>
  </style>
 </defs>
 <g id="Layer_x0020_1">
  <metadata id="CorelCorpID_0Corel-Layer"/>
  <g id="_303111056">
   <path class="fil0 str0" d="M962 398c322,0 583,261 583,583 0,322 -261,583 -583,583 -322,0 -583,-261 -583,-583 0,-322 261,-583 583,-583z"/>
   <polygon class="fil1 str1" points="728,1491 581,1443 913,786 991,785 1344,1443 1198,1494 955,1055 "/>
   <g>
    <polygon class="fil1 str1" points="885,1103 808,1282 397,680 500,545 "/>
    <polygon class="fil1 str1" points="1036,1103 1113,1282 1524,680 1421,545 "/>
   </g>
  </g>
  <path class="fil2" d="M2453 562l261 0 85 482 76 -482 322 0 -182 871 -347 0 -86 -484 -90 484 -350 0 -171 -871 319 0 77 482 86 -482zm1157 -25c84,0 160,10 227,28 29,8 56,21 81,38 25,17 49,40 72,71 23,30 40,66 51,107 15,56 23,118 23,188 0,81 -10,156 -30,227 -17,58 -43,106 -80,146 -37,40 -79,67 -126,83 -62,21 -130,31 -202,31 -73,0 -136,-7 -188,-20 -52,-13 -94,-32 -126,-56 -32,-24 -60,-57 -85,-98 -18,-30 -33,-68 -44,-114 -15,-62 -23,-126 -23,-192 0,-78 9,-146 27,-205 14,-46 39,-87 73,-123 35,-35 72,-61 112,-76 58,-22 137,-33 239,-33zm3 661c35,0 61,-7 80,-20 19,-13 33,-33 41,-58 8,-25 13,-68 13,-128 0,-24 -2,-46 -6,-66 -4,-20 -11,-37 -21,-49 -10,-12 -24,-22 -42,-30 -18,-7 -40,-11 -66,-11 -50,0 -85,14 -104,41 -20,27 -30,72 -30,134 0,28 2,54 7,80 5,25 13,46 23,61 10,15 24,27 42,35 18,8 39,12 64,12zm929 -661c84,0 160,10 227,28 29,8 56,21 81,38 25,17 49,40 72,71 23,30 40,66 51,107 15,56 23,118 23,188 0,81 -10,156 -30,227 -17,58 -43,106 -80,146 -37,40 -79,67 -126,83 -62,21 -130,31 -202,31 -73,0 -136,-7 -188,-20 -52,-13 -94,-32 -126,-56 -32,-24 -60,-57 -85,-98 -18,-30 -33,-68 -44,-114 -15,-62 -23,-126 -23,-192 0,-78 9,-146 27,-205 14,-46 39,-87 73,-123 35,-35 72,-61 112,-76 58,-22 137,-33 239,-33zm3 661c35,0 61,-7 80,-20 19,-13 33,-33 41,-58 8,-25 13,-68 13,-128 0,-24 -2,-46 -6,-66 -4,-20 -11,-37 -21,-49 -10,-12 -24,-22 -42,-30 -18,-7 -40,-11 -66,-11 -50,0 -85,14 -104,41 -20,27 -30,72 -30,134 0,28 2,54 7,80 5,25 13,46 23,61 10,15 24,27 42,35 18,8 39,12 64,12z"/>
  <path class="fil3" d="M6394 1170l-62 -168 -234 0 -62 168 -41 0 204 -541 35 0 202 541 -42 0zm-166 -452c-3,-7 -5,-15 -7,-22 -2,-6 -4,-13 -6,-19l-2 0c-4,17 -8,30 -12,40l-91 251 208 0 -91 -250z"/>
  <path id="1" class="fil3" d="M6794 1170l0 -70 -2 0c-12,24 -31,44 -56,58 -25,14 -52,21 -83,21 -48,0 -86,-17 -116,-52 -30,-35 -45,-83 -45,-144 0,-62 16,-113 49,-151 33,-38 75,-58 128,-58 58,0 99,24 124,71l2 0 0 -247 35 0 0 572 -35 0zm0 -235c0,-36 -11,-66 -34,-91 -23,-25 -53,-37 -92,-37 -40,0 -74,15 -100,46 -26,31 -40,74 -40,128 0,53 12,94 36,123 24,29 54,44 92,44 44,0 78,-14 102,-41 24,-27 36,-60 36,-100l0 -72z"/>
  <path id="2" class="fil3" d="M7080 1170l-32 0 -149 -386 39 0 115 307c6,15 9,28 12,40l2 0c3,-16 7,-29 11,-39l119 -309 38 0 -153 386z"/>
  <path id="3" class="fil3" d="M7311 979c0,53 12,94 37,124 24,30 58,45 101,45 43,0 85,-16 127,-48l0 37c-40,28 -85,43 -134,43 -50,0 -90,-18 -121,-54 -31,-36 -46,-86 -46,-151 0,-56 16,-104 48,-142 32,-38 74,-58 125,-58 48,0 85,17 110,50 26,34 38,80 38,138l0 15 -286 0zm249 -32c-2,-44 -12,-79 -32,-104 -20,-25 -47,-37 -82,-37 -36,0 -66,12 -90,36 -24,24 -38,59 -44,104l248 0z"/>
  <path id="4" class="fil3" d="M7955 1170l0 -225c0,-93 -33,-139 -100,-139 -37,0 -68,14 -92,41 -24,27 -36,61 -36,101l0 222 -35 0 0 -386 35 0 0 70 2 0c28,-53 72,-80 132,-80 42,0 74,14 96,42 22,28 33,67 33,119l0 235 -35 0z"/>
  <path id="5" class="fil3" d="M8259 1165c-18,9 -35,13 -51,13 -57,0 -86,-34 -86,-103l0 -260 -69 0 0 -32 69 0 0 -100c6,-2 11,-4 17,-6 6,-2 12,-4 17,-6l0 112 102 0 0 32 -102 0 0 255c0,27 4,46 13,58 8,12 23,18 43,18 14,0 30,-5 46,-14l0 33z"/>
  <path id="6" class="fil3" d="M8590 1170l0 -70 -2 0c-27,53 -68,80 -124,80 -91,0 -137,-57 -137,-172l0 -223 35 0 0 214c0,52 9,90 26,114 17,24 44,35 81,35 36,0 65,-13 87,-40 22,-26 33,-62 33,-105l0 -219 35 0 0 386 -35 0z"/>
  <path id="7" class="fil3" d="M8931 821c-12,-8 -25,-12 -41,-12 -30,0 -56,16 -77,47 -21,31 -31,76 -31,134l0 181 -34 0 0 -386 34 0 0 85 2 0c9,-29 23,-52 42,-69 19,-16 41,-24 66,-24 14,0 27,2 38,7l0 37z"/>
  <path id="8" class="fil3" d="M8996 979c0,53 12,94 37,124 24,30 58,45 101,45 43,0 85,-16 127,-48l0 37c-40,28 -85,43 -134,43 -50,0 -90,-18 -121,-54 -31,-36 -46,-86 -46,-151 0,-56 16,-104 48,-142 32,-38 74,-58 125,-58 48,0 85,17 110,50 26,34 38,80 38,138l0 15 -286 0zm249 -32c-2,-44 -12,-79 -32,-104 -20,-25 -47,-37 -82,-37 -36,0 -66,12 -90,36 -24,24 -38,59 -44,104l248 0z"/>
  <path id="9" class="fil3" d="M9358 1153l0 -42c13,11 29,20 48,27 19,7 35,10 48,10 61,0 91,-25 91,-74 0,-17 -7,-32 -20,-44 -13,-12 -35,-24 -65,-37 -37,-16 -63,-33 -78,-50 -15,-17 -23,-38 -23,-63 0,-31 12,-57 36,-76 24,-19 54,-29 89,-29 33,0 62,7 85,20l0 39c-29,-19 -58,-28 -89,-28 -25,0 -46,7 -61,20 -16,13 -23,30 -23,51 0,18 5,33 15,45 10,11 32,25 65,39 40,18 68,35 83,50 15,15 23,36 23,62 0,31 -11,56 -34,76 -23,20 -55,30 -95,30 -37,0 -68,-9 -93,-26z"/>
  <rect class="fil4 str2" x="5530" y="550" width="36" height="820"/>
  <rect class="fil0" width="10085" height="1894"/>
 </g>
</svg>
