<svg width="62" height="40" viewBox="0 0 62 40" fill="none" xmlns="http://www.w3.org/2000/svg">
<path fill-rule="evenodd" clip-rule="evenodd" d="M20.9704 7.63642C23.6412 3.5096 28.287 0.773773 33.5751 0.773773C41.5473 0.773773 48.0673 6.99153 48.5502 14.8422C48.7093 14.8361 48.8692 14.8331 49.0297 14.8331C55.8935 14.8331 61.4577 20.3973 61.4577 27.2611C61.4577 34.1249 55.8935 39.6891 49.0297 39.6891L16.8327 39.6891C7.83504 39.6891 0.541016 32.3951 0.541016 23.3975C0.541016 14.3998 7.83504 7.10579 16.8327 7.10579C18.2604 7.10579 19.6475 7.28995 20.9704 7.63642ZM39.7419 22.3263C39.0088 23.2427 37.6715 23.3913 36.7551 22.6581L33.1243 19.7535V29.4988C33.1243 30.6724 32.1729 31.6238 30.9993 31.6238C29.8257 31.6238 28.8743 30.6724 28.8743 29.4988V19.7534L25.2434 22.6581C24.327 23.3913 22.9897 23.2427 22.2566 22.3263C21.5234 21.4098 21.672 20.0726 22.5884 19.3395L29.6642 13.6789C30.0247 13.3873 30.4826 13.2113 30.9814 13.2072L30.9993 13.2071L31.0062 13.2071C31.5137 13.2088 31.9793 13.3882 32.3439 13.6865L39.4101 19.3395C40.3265 20.0726 40.4751 21.4098 39.7419 22.3263Z" fill="#2063F8"/>
</svg>
